<?xml version="1.0" encoding="UTF-8"?>
<svg xmlns="http://www.w3.org/2000/svg" width="1600" height="900" viewBox="0 0 1600 900" role="img" aria-labelledby="title desc">
  <title id="title">Fast infarct growth graphic abstract</title>
  <desc id="desc">Japanese graphical abstract for Bernard Project2 reference 11, PMID 39173104.</desc>
  <defs>
    <style>
      .jp { font-family: Arial, "Hiragino Sans", "Yu Gothic", "Noto Sans CJK JP", sans-serif; }
      .en { font-family: Arial, Helvetica, sans-serif; }
    </style>
    <marker id="arrow" viewBox="0 0 10 10" refX="8" refY="5" markerWidth="9" markerHeight="9" orient="auto">
      <path d="M0 0 L10 5 L0 10 z" fill="#15344a"/>
    </marker>
    <linearGradient id="brain" x1="0" y1="0" x2="1" y2="1">
      <stop offset="0" stop-color="#e7f3f8"/>
      <stop offset="1" stop-color="#fff4de"/>
    </linearGradient>
  </defs>
  <rect width="1600" height="900" fill="#f7fafb"/>

  <rect x="48" y="30" width="1504" height="128" rx="8" fill="#15344a"/>
  <rect x="74" y="55" width="96" height="78" rx="8" fill="#ffffff" opacity="0.12"/>
  <text x="122" y="106" text-anchor="middle" class="en" font-size="36" font-weight="900" fill="#ffffff">#11</text>
  <text x="845" y="78" text-anchor="middle" class="jp" font-size="38" font-weight="900" fill="#ffffff"><tspan x="845" dy="0">転送中のfast progressorは不良側副路画像で予測</tspan></text>
  <text x="845" y="138" text-anchor="middle" class="jp" font-size="22" font-weight="700" fill="#d9edf3">Fast infarct growth / PMID: 39173104</text>

  <rect x="64" y="188" width="360" height="420" rx="8" fill="#ffffff" stroke="#c7d4dd" stroke-width="3"/>
  <rect x="64" y="188" width="360" height="62" rx="8" fill="#e7f3f8"/>
  <text x="244" y="228" text-anchor="middle" class="jp" font-size="29" font-weight="900" fill="#15344a">対象・文脈</text>
  <path d="M146 334 C177 274 255 270 293 330 C337 402 278 488 203 470 C151 490 94 452 100 390 C72 366 88 322 128 319 C133 313 138 305 146 334 Z" fill="url(#brain)" stroke="#90b8c3" stroke-width="5"/>
  <path d="M148 385 C188 348 228 355 269 326" fill="none" stroke="#0b6f91" stroke-width="15" stroke-linecap="round"/>
  <circle cx="212" cy="365" r="42" fill="none" stroke="#0b6f91" stroke-width="8"/>
  <circle cx="212" cy="365" r="21" fill="#e49b32" opacity="0.9"/>
  <text x="244" y="494" text-anchor="middle" class="jp" font-size="25" font-weight="800" fill="#15344a"><tspan x="244" dy="0">前方循環LVO転送</tspan></text>
  <text x="244" y="560" text-anchor="middle" class="jp" font-size="21" font-weight="600" fill="#526474"><tspan x="244" dy="0">CTP→MRI / 183例 / Neurology 2</tspan><tspan x="244" dy="27">024</tspan></text>

  <path d="M454 398 H536" stroke="#15344a" stroke-width="8" marker-end="url(#arrow)"/>

  <rect x="566" y="188" width="420" height="420" rx="8" fill="#ffffff" stroke="#0b6f91" stroke-width="4"/>
  <rect x="566" y="188" width="420" height="66" rx="8" fill="#0b6f91"/>
  <text x="776" y="228" text-anchor="middle" class="jp" font-size="28" font-weight="900" fill="#ffffff"><tspan x="776" dy="0">Fast IGR</tspan></text>
  <text x="776" y="296" text-anchor="middle" class="jp" font-size="28" font-weight="900" fill="#0b6f91">≥5 mL/h</text>
  <g transform="translate(612 334)">
    <path d="M56 152 C86 100 58 52 94 14" fill="none" stroke="#b53638" stroke-width="34" stroke-linecap="round"/>
    <path d="M130 152 C160 100 132 52 168 14" fill="none" stroke="#e05b51" stroke-width="34" stroke-linecap="round"/>
    <circle cx="124" cy="92" r="54" fill="none" stroke="#0b6f91" stroke-width="8" stroke-dasharray="10 9"/>
    <circle cx="124" cy="92" r="18" fill="#e49b32" opacity="0.85"/>
    <path d="M170 96 H292" stroke="#14324a" stroke-width="7" marker-end="url(#arrow)"/>
  <rect x="292" y="55" width="74" height="82" rx="11" fill="#ffffff" stroke="#0b6f91" stroke-width="5"/>
  <path d="M309 96 h40" stroke="#0b6f91" stroke-width="8" stroke-linecap="round"/>
  </g>
  <text x="776" y="544" text-anchor="middle" class="jp" font-size="28" font-weight="900" fill="#15344a"><tspan x="776" dy="0">fast progressor 45%</tspan></text>
  <text x="776" y="582" text-anchor="middle" class="jp" font-size="21" fill="#526474">intervention / exposure</text>

  <rect x="1050" y="188" width="420" height="420" rx="8" fill="#ffffff" stroke="#e49b32" stroke-width="4"/>
  <rect x="1050" y="188" width="420" height="66" rx="8" fill="#e49b32"/>
  <text x="1260" y="228" text-anchor="middle" class="jp" font-size="28" font-weight="900" fill="#ffffff"><tspan x="1260" dy="0">Slow IGR</tspan></text>
  <text x="1260" y="296" text-anchor="middle" class="jp" font-size="28" font-weight="900" fill="#e49b32">&lt;5 mL/h</text>
  <g transform="translate(1096 334)">
    <path d="M56 152 C86 100 58 52 94 14" fill="none" stroke="#b53638" stroke-width="34" stroke-linecap="round"/>
    <path d="M130 152 C160 100 132 52 168 14" fill="none" stroke="#e05b51" stroke-width="34" stroke-linecap="round"/>
    <circle cx="124" cy="92" r="54" fill="none" stroke="#0b6f91" stroke-width="8" stroke-dasharray="10 9"/>
    <circle cx="124" cy="92" r="18" fill="#e49b32" opacity="0.85"/>
    <rect x="282" y="57" width="90" height="78" rx="11" fill="#ffffff" stroke="#e49b32" stroke-width="5"/>
  <path d="M304 77 h46 M304 101 h46" stroke="#e49b32" stroke-width="7" stroke-linecap="round"/>
  </g>
  <text x="1260" y="544" text-anchor="middle" class="jp" font-size="28" font-weight="900" fill="#15344a"><tspan x="1260" dy="0">HIR aOR 1.32 /0.10</tspan></text>
  <text x="1260" y="582" text-anchor="middle" class="jp" font-size="21" fill="#526474">control / comparator</text>

  <rect x="64" y="656" width="356" height="168" rx="8" fill="#ffffff" stroke="#0b6f91" stroke-width="3"/>
  <text x="242" y="701" text-anchor="middle" class="jp" font-size="25" font-weight="900" fill="#0b6f91">主要アウトカム</text>
  <text x="242" y="758" text-anchor="middle" class="jp" font-size="28" font-weight="900" fill="#15344a"><tspan x="242" dy="0">fast progressor 45%</tspan></text>

  <rect x="452" y="656" width="356" height="168" rx="8" fill="#ffffff" stroke="#e49b32" stroke-width="3"/>
  <text x="630" y="701" text-anchor="middle" class="jp" font-size="25" font-weight="900" fill="#e49b32">比較・補助所見</text>
  <text x="630" y="758" text-anchor="middle" class="jp" font-size="28" font-weight="900" fill="#15344a"><tspan x="630" dy="0">HIR aOR 1.32 /0.10</tspan></text>

  <rect x="840" y="656" width="296" height="168" rx="8" fill="#ffffff" stroke="#c7d4dd" stroke-width="3"/>
  <text x="988" y="701" text-anchor="middle" class="jp" font-size="25" font-weight="900" fill="#15344a">解釈</text>
  <text x="988" y="758" text-anchor="middle" class="jp" font-size="26" font-weight="850" fill="#15344a"><tspan x="988" dy="0">core aOR 1.54 /1</tspan><tspan x="988" dy="34">0mL</tspan></text>

  <rect x="1168" y="656" width="384" height="168" rx="8" fill="#15344a"/>
  <text x="1360" y="704" text-anchor="middle" class="en" font-size="27" font-weight="900" fill="#ffffff">Take-home</text>
  <text x="1360" y="758" text-anchor="middle" class="jp" font-size="25" font-weight="900" fill="#d9edf3"><tspan x="1360" dy="0">側副路とcore情報で転送中の悪化を先読</tspan><tspan x="1360" dy="34">みする</tspan></text>

  <text x="72" y="866" class="jp" font-size="19" fill="#526474">Bernard Project2 引用文献 #11 / Fast infarct growth / PMID: 39173104 / generated as pmid-39173104-fast-infarct-growth-transfer-v2.svg</text>
</svg>
